# xmcd
#
# Track frame offsets: 
#        150
#        20403
#        38955
#        59251
#        78254
#        96425
#        114932
#        135950
#        154285
#        172225
#        188737
#
# Disc length: 2760 seconds
#
# Revision: 1
# Processed by: cddbd v1.5.2PL0 Copyright (c) Steve Scherf et al.
# Submitted via: ExactAudioCopy v1.0b4
#
DISCID=8a0ac60b
DTITLE=이승기 - 남자가 여자를 사랑할 때
DYEAR=2006
DGENRE=Ballad
TTITLE0=제발
TTITLE1=원하고 원망하죠
TTITLE2=내안의 그대
TTITLE3=사랑했잖아
TTITLE4=한번만 더
TTITLE5=아디오
TTITLE6=고백
TTITLE7=눈물
TTITLE8=나만의 것
TTITLE9=만남
TTITLE10=원하고 원망하죠(Acoustic guitar)
EXTD=
EXTT0=
EXTT1=
EXTT2=
EXTT3=
EXTT4=
EXTT5=
EXTT6=
EXTT7=
EXTT8=
EXTT9=
EXTT10=
PLAYORDER=
